<?xml version="1.0" encoding="us-ascii" standalone="no"?><svg xmlns="http://www.w3.org/2000/svg" xmlns:xlink="http://www.w3.org/1999/xlink" contentStyleType="text/css" height="742px" preserveAspectRatio="none" style="width:392px;height:742px;background:#FFFFFF;" version="1.1" viewBox="0 0 392 742" width="392px" zoomAndPan="magnify"><defs/><g><!--class User--><g id="elem_User"><rect codeLine="3" fill="#F1F1F1" height="149.3596" id="User" rx="2.5" ry="2.5" style="stroke:#181818;stroke-width:0.5;" width="162" x="24.5" y="7"/><ellipse cx="73.25" cy="23" fill="#ADD1B2" rx="11" ry="11" style="stroke:#181818;stroke-width:1.0;"/><path d="M77.3594,29 L69.6406,29 L69.6406,16.6094 L77.3594,16.6094 L77.3594,18.7656 L72.0938,18.7656 L72.0938,21.4375 L76.8594,21.4375 L76.8594,23.5938 L72.0938,23.5938 L72.0938,26.8438 L77.3594,26.8438 L77.3594,29 Z " fill="#000000"/><text fill="#000000" font-family="Noto Sans CJK JP" font-size="14" lengthAdjust="spacing" textLength="56" x="93.75" y="29.104">&#12518;&#12540;&#12470;&#12540;</text><line style="stroke:#181818;stroke-width:0.5;" x1="25.5" x2="185.5" y1="39" y2="39"/><ellipse cx="35.5" cy="54.636" fill="none" rx="3" ry="3" style="stroke:#038048;stroke-width:1.0;"/><text fill="#000000" font-family="Noto Sans CJK JP" font-size="14" lengthAdjust="spacing" textLength="48" x="44.5" y="59.2399">id &#171;PK&#187;</text><text fill="#000000" font-family="Noto Sans CJK JP" font-size="14" lengthAdjust="spacing" textLength="136" x="44.5" y="79.5118">username &#171;UNIQUE&#187;</text><text fill="#000000" font-family="Noto Sans CJK JP" font-size="14" lengthAdjust="spacing" textLength="37" x="44.5" y="99.7838">email</text><text fill="#000000" font-family="Noto Sans CJK JP" font-size="14" lengthAdjust="spacing" textLength="64" x="44.5" y="120.0557">password</text><text fill="#000000" font-family="Noto Sans CJK JP" font-size="14" lengthAdjust="spacing" textLength="38" x="44.5" y="140.3276">name</text><line style="stroke:#181818;stroke-width:0.5;" x1="25.5" x2="185.5" y1="148.3596" y2="148.3596"/></g><!--class Region--><g id="elem_Region"><rect codeLine="11" fill="#F1F1F1" height="108.8157" id="Region" rx="2.5" ry="2.5" style="stroke:#181818;stroke-width:0.5;" width="127" x="30" y="296.5"/><ellipse cx="49.95" cy="312.5" fill="#ADD1B2" rx="11" ry="11" style="stroke:#181818;stroke-width:1.0;"/><path d="M54.0594,318.5 L46.3406,318.5 L46.3406,306.1094 L54.0594,306.1094 L54.0594,308.2656 L48.7938,308.2656 L48.7938,310.9375 L53.5594,310.9375 L53.5594,313.0938 L48.7938,313.0938 L48.7938,316.3438 L54.0594,316.3438 L54.0594,318.5 Z " fill="#000000"/><text fill="#000000" font-family="Noto Sans CJK JP" font-size="14" lengthAdjust="spacing" textLength="84" x="65.05" y="318.604">&#22320;&#22495;&#12510;&#12473;&#12479;&#12540;</text><line style="stroke:#181818;stroke-width:0.5;" x1="31" x2="156" y1="328.5" y2="328.5"/><ellipse cx="41" cy="344.136" fill="none" rx="3" ry="3" style="stroke:#038048;stroke-width:1.0;"/><text fill="#000000" font-family="Noto Sans CJK JP" font-size="14" lengthAdjust="spacing" textLength="48" x="50" y="348.7399">id &#171;PK&#187;</text><text fill="#000000" font-family="Noto Sans CJK JP" font-size="14" lengthAdjust="spacing" textLength="38" x="50" y="369.0118">name</text><text fill="#000000" font-family="Noto Sans CJK JP" font-size="14" lengthAdjust="spacing" textLength="101" x="50" y="389.2838">code &#171;UNIQUE&#187;</text><line style="stroke:#181818;stroke-width:0.5;" x1="31" x2="156" y1="397.3157" y2="397.3157"/></g><!--class IndicatorGroup--><g id="elem_IndicatorGroup"><rect codeLine="17" fill="#F1F1F1" height="108.8157" id="IndicatorGroup" rx="2.5" ry="2.5" style="stroke:#181818;stroke-width:0.5;" width="133" x="222" y="27"/><ellipse cx="244.65" cy="43" fill="#ADD1B2" rx="11" ry="11" style="stroke:#181818;stroke-width:1.0;"/><path d="M248.7594,49 L241.0406,49 L241.0406,36.6094 L248.7594,36.6094 L248.7594,38.7656 L243.4938,38.7656 L243.4938,41.4375 L248.2594,41.4375 L248.2594,43.5938 L243.4938,43.5938 L243.4938,46.8438 L248.7594,46.8438 L248.7594,49 Z " fill="#000000"/><text fill="#000000" font-family="Noto Sans CJK JP" font-size="14" lengthAdjust="spacing" textLength="84" x="260.35" y="49.104">&#25351;&#27161;&#12464;&#12523;&#12540;&#12503;</text><line style="stroke:#181818;stroke-width:0.5;" x1="223" x2="354" y1="59" y2="59"/><ellipse cx="233" cy="74.636" fill="none" rx="3" ry="3" style="stroke:#038048;stroke-width:1.0;"/><text fill="#000000" font-family="Noto Sans CJK JP" font-size="14" lengthAdjust="spacing" textLength="48" x="242" y="79.2399">id &#171;PK&#187;</text><text fill="#000000" font-family="Noto Sans CJK JP" font-size="14" lengthAdjust="spacing" textLength="107" x="242" y="99.5118">name &#171;UNIQUE&#187;</text><text fill="#000000" font-family="Noto Sans CJK JP" font-size="14" lengthAdjust="spacing" textLength="75" x="242" y="119.7838">description</text><line style="stroke:#181818;stroke-width:0.5;" x1="223" x2="354" y1="127.8157" y2="127.8157"/></g><!--class Indicator--><g id="elem_Indicator"><rect codeLine="23" fill="#F1F1F1" height="230.4472" id="Indicator" rx="2.5" ry="2.5" style="stroke:#181818;stroke-width:0.5;" width="193" x="192" y="236"/><ellipse cx="242.25" cy="252" fill="#ADD1B2" rx="11" ry="11" style="stroke:#181818;stroke-width:1.0;"/><path d="M246.3594,258 L238.6406,258 L238.6406,245.6094 L246.3594,245.6094 L246.3594,247.7656 L241.0938,247.7656 L241.0938,250.4375 L245.8594,250.4375 L245.8594,252.5938 L241.0938,252.5938 L241.0938,255.8438 L246.3594,255.8438 L246.3594,258 Z " fill="#000000"/><text fill="#000000" font-family="Noto Sans CJK JP" font-size="14" lengthAdjust="spacing" textLength="84" x="262.75" y="258.104">&#25351;&#27161;&#12510;&#12473;&#12479;&#12540;</text><line style="stroke:#181818;stroke-width:0.5;" x1="193" x2="384" y1="268" y2="268"/><ellipse cx="203" cy="283.636" fill="none" rx="3" ry="3" style="stroke:#038048;stroke-width:1.0;"/><text fill="#000000" font-family="Noto Sans CJK JP" font-size="14" lengthAdjust="spacing" textLength="48" x="212" y="288.2399">id &#171;PK&#187;</text><text fill="#000000" font-family="Noto Sans CJK JP" font-size="14" lengthAdjust="spacing" textLength="94" x="212" y="308.5118">group_id &#171;FK&#187;</text><text fill="#000000" font-family="Noto Sans CJK JP" font-size="14" lengthAdjust="spacing" textLength="38" x="212" y="328.7838">name</text><text fill="#000000" font-family="Noto Sans CJK JP" font-size="14" lengthAdjust="spacing" textLength="27" x="212" y="349.0557">unit</text><text fill="#000000" font-family="Noto Sans CJK JP" font-size="14" lengthAdjust="spacing" textLength="75" x="212" y="369.3276">description</text><text fill="#000000" font-family="Noto Sans CJK JP" font-size="14" lengthAdjust="spacing" textLength="128" x="212" y="389.5995">data_source_name</text><text fill="#000000" font-family="Noto Sans CJK JP" font-size="14" lengthAdjust="spacing" textLength="108" x="212" y="409.8714">data_source_url</text><text fill="#000000" font-family="Noto Sans CJK JP" font-size="14" lengthAdjust="spacing" textLength="90" x="212" y="430.1433">metadata_url</text><line style="stroke:#181818;stroke-width:0.5;" x1="193" x2="384" y1="438.1753" y2="438.1753"/><text fill="#000000" font-family="Noto Sans CJK JP" font-size="14" lengthAdjust="spacing" textLength="181" x="198" y="458.4152">&#171;UNIQUE(group_id, name)&#187;</text></g><!--class ClimateData--><g id="elem_ClimateData"><rect codeLine="35" fill="#F1F1F1" height="189.9034" id="ClimateData" rx="2.5" ry="2.5" style="stroke:#181818;stroke-width:0.5;" width="273" x="7" y="546"/><ellipse cx="104.25" cy="562" fill="#ADD1B2" rx="11" ry="11" style="stroke:#181818;stroke-width:1.0;"/><path d="M108.3594,568 L100.6406,568 L100.6406,555.6094 L108.3594,555.6094 L108.3594,557.7656 L103.0938,557.7656 L103.0938,560.4375 L107.8594,560.4375 L107.8594,562.5938 L103.0938,562.5938 L103.0938,565.8438 L108.3594,565.8438 L108.3594,568 Z " fill="#000000"/><text fill="#000000" font-family="Noto Sans CJK JP" font-size="14" lengthAdjust="spacing" textLength="70" x="124.75" y="568.104">&#27671;&#20505;&#12487;&#12540;&#12479;</text><line style="stroke:#181818;stroke-width:0.5;" x1="8" x2="279" y1="578" y2="578"/><ellipse cx="18" cy="593.636" fill="none" rx="3" ry="3" style="stroke:#038048;stroke-width:1.0;"/><text fill="#000000" font-family="Noto Sans CJK JP" font-size="14" lengthAdjust="spacing" textLength="48" x="27" y="598.2399">id &#171;PK&#187;</text><text fill="#000000" font-family="Noto Sans CJK JP" font-size="14" lengthAdjust="spacing" textLength="97" x="27" y="618.5118">region_id &#171;FK&#187;</text><text fill="#000000" font-family="Noto Sans CJK JP" font-size="14" lengthAdjust="spacing" textLength="114" x="27" y="638.7838">indicator_id &#171;FK&#187;</text><text fill="#000000" font-family="Noto Sans CJK JP" font-size="14" lengthAdjust="spacing" textLength="28" x="27" y="659.0557">year</text><text fill="#000000" font-family="Noto Sans CJK JP" font-size="14" lengthAdjust="spacing" textLength="36" x="27" y="679.3276">value</text><text fill="#000000" font-family="Noto Sans CJK JP" font-size="14" lengthAdjust="spacing" textLength="78" x="27" y="699.5995">updated_at</text><line style="stroke:#181818;stroke-width:0.5;" x1="8" x2="279" y1="707.6315" y2="707.6315"/><text fill="#000000" font-family="Noto Sans CJK JP" font-size="14" lengthAdjust="spacing" textLength="261" x="13" y="727.8714">&#171;UNIQUE(region_id, indicator_id, year)&#187;</text></g><!--link IndicatorGroup to Indicator--><g id="link_IndicatorGroup_Indicator"><path codeLine="45" d="M288.5,144.31 C288.5,172.92 288.5,183.23 288.5,217.77 " fill="none" id="IndicatorGroup-Indicator" style="stroke:#181818;stroke-width:1.0;"/><line style="stroke:#181818;stroke-width:1.0;" x1="284.5" x2="292.5" y1="140.31" y2="140.31"/><line style="stroke:#181818;stroke-width:1.0;" x1="284.5" x2="292.5" y1="143.31" y2="143.31"/><line style="stroke:#181818;stroke-width:1.0;" x1="288.5" x2="288.5" y1="144.31" y2="136.31"/><line style="stroke:#181818;stroke-width:1.0;" x1="288.5" x2="294.5" y1="227.77" y2="235.77"/><line style="stroke:#181818;stroke-width:1.0;" x1="288.5" x2="282.5" y1="227.77" y2="235.77"/><line style="stroke:#181818;stroke-width:1.0;" x1="288.5" x2="288.5" y1="227.77" y2="235.77"/><ellipse cx="288.5" cy="221.77" fill="none" rx="4" ry="4" style="stroke:#181818;stroke-width:1.0;"/><text fill="#000000" font-family="Noto Sans CJK JP" font-size="13" lengthAdjust="spacing" textLength="55" x="289.5" y="202.08">group_id</text></g><!--link Region to ClimateData--><g id="link_Region_ClimateData"><path codeLine="47" d="M104.2172,413.7123 C111.0372,453.0323 116.0207,481.7453 124.0807,528.1653 " fill="none" id="Region-ClimateData" style="stroke:#181818;stroke-width:1.0;"/><line style="stroke:#181818;stroke-width:1.0;" x1="99.5924" x2="107.4747" y1="410.4547" y2="409.0876"/><line style="stroke:#181818;stroke-width:1.0;" x1="100.1051" x2="107.9874" y1="413.4106" y2="412.0434"/><line style="stroke:#181818;stroke-width:1.0;" x1="104.2172" x2="102.85" y1="413.7123" y2="405.83"/><line style="stroke:#181818;stroke-width:1.0;" x1="125.7914" x2="133.0716" y1="538.0179" y2="544.8736"/><line style="stroke:#181818;stroke-width:1.0;" x1="125.7914" x2="121.2484" y1="538.0179" y2="546.9264"/><line style="stroke:#181818;stroke-width:1.0;" x1="125.7914" x2="127.16" y1="538.0179" y2="545.9"/><ellipse cx="124.765" cy="532.1064" fill="none" rx="4" ry="4" style="stroke:#181818;stroke-width:1.0;"/><text fill="#000000" font-family="Noto Sans CJK JP" font-size="13" lengthAdjust="spacing" textLength="58" x="122.5" y="512.08">region_id</text></g><!--link Indicator to ClimateData--><g id="link_Indicator_ClimateData"><path codeLine="48" d="M227.3828,473.3856 C214.1028,499.7656 211.8153,504.3231 199.0153,529.7431 " fill="none" id="Indicator-ClimateData" style="stroke:#181818;stroke-width:1.0;"/><line style="stroke:#181818;stroke-width:1.0;" x1="225.6086" x2="232.7542" y1="468.0142" y2="471.6114"/><line style="stroke:#181818;stroke-width:1.0;" x1="224.2596" x2="231.4053" y1="470.6938" y2="474.291"/><line style="stroke:#181818;stroke-width:1.0;" x1="227.3828" x2="230.98" y1="473.3856" y2="466.24"/><line style="stroke:#181818;stroke-width:1.0;" x1="194.5179" x2="196.279" y1="538.6747" y2="548.5184"/><line style="stroke:#181818;stroke-width:1.0;" x1="194.5179" x2="185.561" y1="538.6747" y2="543.1216"/><line style="stroke:#181818;stroke-width:1.0;" x1="194.5179" x2="190.92" y1="538.6747" y2="545.82"/><ellipse cx="197.2164" cy="533.3158" fill="none" rx="4" ry="4" style="stroke:#181818;stroke-width:1.0;"/><text fill="#000000" font-family="Noto Sans CJK JP" font-size="13" lengthAdjust="spacing" textLength="75" x="216.5" y="512.08">indicator_id</text></g><!--SRC=[RPBFQi904CRlUOebfvRg2qZmOl-WWjWMps58jh8qsGsxcnRHGaaENdgNGgctKkZ5Kw5Gy64MVOvkjeacqKisCyn-tszcLjmJ6W674Fdu3k90NZ8g1n1YP0-OPEWMg42TNX_rXhPbOIg9d21RfHyg_LN9j_xQ20GQ2SpHr4BeZFZ8SORzTbi7iSxIJCjnHeFkzUZ2P7489D1d148yCkxhtwp8UjhhRzvMc-LIfUyg-L79kd2vmMF2wA6FkOwGn_oALKbm-pBVVhwgPANIhumyNHZ1BlM91vBnAyxYwBXm5Tx7mkCaafhZY7uTUAT_A3tE75sJkQnq4LCYQqOw0WckO37ti9lNbLCnpmOQOWac-nyMt2U5LSDOdDOcirfidZNvt2nqRR0x0Gb1udEjTGZEpH8gvAHeivATOE3wU80WDdr5cWtxBiWosqwjKL5fcDivQcrBircpoQQbsRPsmxIi_8daDUL6MdlolUBnmZA9zGS0]--></g></svg>