<?xml version="1.0" encoding="us-ascii" standalone="no"?><svg xmlns="http://www.w3.org/2000/svg" xmlns:xlink="http://www.w3.org/1999/xlink" contentStyleType="text/css" height="453px" preserveAspectRatio="none" style="width:640px;height:453px;background:#FFFFFF;" version="1.1" viewBox="0 0 640 453" width="640px" zoomAndPan="magnify"><defs/><g><!--class User--><g id="elem_User"><rect codeLine="3" fill="#F1F1F1" height="149.3596" id="User" rx="2.5" ry="2.5" style="stroke:#181818;stroke-width:0.5;" width="193" x="7" y="27.5"/><ellipse cx="44.05" cy="43.5" fill="#ADD1B2" rx="11" ry="11" style="stroke:#181818;stroke-width:1.0;"/><path d="M48.1594,49.5 L40.4406,49.5 L40.4406,37.1094 L48.1594,37.1094 L48.1594,39.2656 L42.8938,39.2656 L42.8938,41.9375 L47.6594,41.9375 L47.6594,44.0938 L42.8938,44.0938 L42.8938,47.3438 L48.1594,47.3438 L48.1594,49.5 Z " fill="#000000"/><text fill="#000000" font-family="Noto Sans CJK JP" font-size="14" lengthAdjust="spacing" textLength="112" x="62.95" y="49.604">&#12518;&#12540;&#12470;&#12540;&#12510;&#12473;&#12479;&#12540;</text><line style="stroke:#181818;stroke-width:0.5;" x1="8" x2="199" y1="59.5" y2="59.5"/><ellipse cx="18" cy="75.136" fill="none" rx="3" ry="3" style="stroke:#038048;stroke-width:1.0;"/><text fill="#000000" font-family="Noto Sans CJK JP" font-size="14" lengthAdjust="spacing" textLength="105" x="27" y="79.7399">&#12518;&#12540;&#12470;&#12540;ID &#171;PK&#187;</text><ellipse cx="18" cy="95.4079" fill="none" rx="3" ry="3" style="stroke:#038048;stroke-width:1.0;"/><text fill="#000000" font-family="Noto Sans CJK JP" font-size="14" lengthAdjust="spacing" textLength="139" x="27" y="100.0118">&#12525;&#12464;&#12452;&#12531;&#21517; &#171;UNIQUE&#187;</text><ellipse cx="18" cy="115.6798" fill="none" rx="3" ry="3" style="stroke:#038048;stroke-width:1.0;"/><text fill="#000000" font-family="Noto Sans CJK JP" font-size="14" lengthAdjust="spacing" textLength="167" x="27" y="120.2838">&#12513;&#12540;&#12523;&#12450;&#12489;&#12524;&#12473; &#171;UNIQUE&#187;</text><ellipse cx="18" cy="135.9517" fill="none" rx="3" ry="3" style="stroke:#038048;stroke-width:1.0;"/><text fill="#000000" font-family="Noto Sans CJK JP" font-size="14" lengthAdjust="spacing" textLength="70" x="27" y="140.5557">&#12497;&#12473;&#12527;&#12540;&#12489;</text><ellipse cx="18" cy="156.2236" fill="none" rx="3" ry="3" style="stroke:#038048;stroke-width:1.0;"/><text fill="#000000" font-family="Noto Sans CJK JP" font-size="14" lengthAdjust="spacing" textLength="42" x="27" y="160.8276">&#30331;&#37682;&#26085;</text><line style="stroke:#181818;stroke-width:0.5;" x1="8" x2="199" y1="168.8596" y2="168.8596"/></g><!--class Region--><g id="elem_Region"><rect codeLine="11" fill="#F1F1F1" height="108.8157" id="Region" rx="2.5" ry="2.5" style="stroke:#181818;stroke-width:0.5;" width="226" x="407.5" y="47.5"/><ellipse cx="474.25" cy="63.5" fill="#ADD1B2" rx="11" ry="11" style="stroke:#181818;stroke-width:1.0;"/><path d="M478.3594,69.5 L470.6406,69.5 L470.6406,57.1094 L478.3594,57.1094 L478.3594,59.2656 L473.0938,59.2656 L473.0938,61.9375 L477.8594,61.9375 L477.8594,64.0938 L473.0938,64.0938 L473.0938,67.3438 L478.3594,67.3438 L478.3594,69.5 Z " fill="#000000"/><text fill="#000000" font-family="Noto Sans CJK JP" font-size="14" lengthAdjust="spacing" textLength="84" x="494.75" y="69.604">&#22320;&#22495;&#12510;&#12473;&#12479;&#12540;</text><line style="stroke:#181818;stroke-width:0.5;" x1="408.5" x2="632.5" y1="79.5" y2="79.5"/><ellipse cx="418.5" cy="95.136" fill="none" rx="3" ry="3" style="stroke:#038048;stroke-width:1.0;"/><text fill="#000000" font-family="Noto Sans CJK JP" font-size="14" lengthAdjust="spacing" textLength="77" x="427.5" y="99.7399">&#22320;&#22495;ID &#171;PK&#187;</text><ellipse cx="418.5" cy="115.4079" fill="none" rx="3" ry="3" style="stroke:#038048;stroke-width:1.0;"/><text fill="#000000" font-family="Noto Sans CJK JP" font-size="14" lengthAdjust="spacing" textLength="42" x="427.5" y="120.0118">&#22320;&#22495;&#21517;</text><ellipse cx="418.5" cy="135.6798" fill="none" rx="3" ry="3" style="stroke:#038048;stroke-width:1.0;"/><text fill="#000000" font-family="Noto Sans CJK JP" font-size="14" lengthAdjust="spacing" textLength="200" x="427.5" y="140.2838">ISO&#12467;&#12540;&#12489; &#171;UNIQUE&#187; &#171;NULL&#21487;&#187;</text><line style="stroke:#181818;stroke-width:0.5;" x1="408.5" x2="632.5" y1="148.3157" y2="148.3157"/></g><!--class Indicator--><g id="elem_Indicator"><rect codeLine="17" fill="#F1F1F1" height="189.9034" id="Indicator" rx="2.5" ry="2.5" style="stroke:#181818;stroke-width:0.5;" width="137" x="235" y="7"/><ellipse cx="259.45" cy="23" fill="#ADD1B2" rx="11" ry="11" style="stroke:#181818;stroke-width:1.0;"/><path d="M263.5594,29 L255.8406,29 L255.8406,16.6094 L263.5594,16.6094 L263.5594,18.7656 L258.2938,18.7656 L258.2938,21.4375 L263.0594,21.4375 L263.0594,23.5938 L258.2938,23.5938 L258.2938,26.8438 L263.5594,26.8438 L263.5594,29 Z " fill="#000000"/><text fill="#000000" font-family="Noto Sans CJK JP" font-size="14" lengthAdjust="spacing" textLength="84" x="275.55" y="29.104">&#25351;&#27161;&#12510;&#12473;&#12479;&#12540;</text><line style="stroke:#181818;stroke-width:0.5;" x1="236" x2="371" y1="39" y2="39"/><ellipse cx="246" cy="54.636" fill="none" rx="3" ry="3" style="stroke:#038048;stroke-width:1.0;"/><text fill="#000000" font-family="Noto Sans CJK JP" font-size="14" lengthAdjust="spacing" textLength="77" x="255" y="59.2399">&#25351;&#27161;ID &#171;PK&#187;</text><ellipse cx="246" cy="74.9079" fill="none" rx="3" ry="3" style="stroke:#038048;stroke-width:1.0;"/><text fill="#000000" font-family="Noto Sans CJK JP" font-size="14" lengthAdjust="spacing" textLength="42" x="255" y="79.5118">&#25351;&#27161;&#21517;</text><ellipse cx="246" cy="95.1798" fill="none" rx="3" ry="3" style="stroke:#038048;stroke-width:1.0;"/><text fill="#000000" font-family="Noto Sans CJK JP" font-size="14" lengthAdjust="spacing" textLength="28" x="255" y="99.7838">&#21336;&#20301;</text><ellipse cx="246" cy="115.4517" fill="none" rx="3" ry="3" style="stroke:#038048;stroke-width:1.0;"/><text fill="#000000" font-family="Noto Sans CJK JP" font-size="14" lengthAdjust="spacing" textLength="28" x="255" y="120.0557">&#35500;&#26126;</text><ellipse cx="246" cy="135.7236" fill="none" rx="3" ry="3" style="stroke:#038048;stroke-width:1.0;"/><text fill="#000000" font-family="Noto Sans CJK JP" font-size="14" lengthAdjust="spacing" textLength="98" x="255" y="140.3276">&#12487;&#12540;&#12479;&#12477;&#12540;&#12473;&#21517;</text><ellipse cx="246" cy="155.9955" fill="none" rx="3" ry="3" style="stroke:#038048;stroke-width:1.0;"/><text fill="#000000" font-family="Noto Sans CJK JP" font-size="14" lengthAdjust="spacing" textLength="111" x="255" y="160.5995">&#12487;&#12540;&#12479;&#12477;&#12540;&#12473;URL</text><ellipse cx="246" cy="176.2674" fill="none" rx="3" ry="3" style="stroke:#038048;stroke-width:1.0;"/><text fill="#000000" font-family="Noto Sans CJK JP" font-size="14" lengthAdjust="spacing" textLength="42" x="255" y="180.8714">&#21462;&#24471;&#26085;</text><line style="stroke:#181818;stroke-width:0.5;" x1="236" x2="371" y1="188.9034" y2="188.9034"/></g><!--class ClimateData--><g id="elem_ClimateData"><rect codeLine="27" fill="#F1F1F1" height="169.6315" id="ClimateData" rx="2.5" ry="2.5" style="stroke:#181818;stroke-width:0.5;" width="117" x="427" y="277"/><ellipse cx="448.75" cy="293" fill="#ADD1B2" rx="11" ry="11" style="stroke:#181818;stroke-width:1.0;"/><path d="M452.8594,299 L445.1406,299 L445.1406,286.6094 L452.8594,286.6094 L452.8594,288.7656 L447.5938,288.7656 L447.5938,291.4375 L452.3594,291.4375 L452.3594,293.5938 L447.5938,293.5938 L447.5938,296.8438 L452.8594,296.8438 L452.8594,299 Z " fill="#000000"/><text fill="#000000" font-family="Noto Sans CJK JP" font-size="14" lengthAdjust="spacing" textLength="70" x="464.25" y="299.104">&#27671;&#20505;&#12487;&#12540;&#12479;</text><line style="stroke:#181818;stroke-width:0.5;" x1="428" x2="543" y1="309" y2="309"/><ellipse cx="438" cy="324.636" fill="none" rx="3" ry="3" style="stroke:#038048;stroke-width:1.0;"/><text fill="#000000" font-family="Noto Sans CJK JP" font-size="14" lengthAdjust="spacing" textLength="91" x="447" y="329.2399">&#12487;&#12540;&#12479;ID &#171;PK&#187;</text><ellipse cx="438" cy="344.9079" fill="none" rx="3" ry="3" style="stroke:#038048;stroke-width:1.0;"/><text fill="#000000" font-family="Noto Sans CJK JP" font-size="14" lengthAdjust="spacing" textLength="76" x="447" y="349.5118">&#22320;&#22495;ID &#171;FK&#187;</text><ellipse cx="438" cy="365.1798" fill="none" rx="3" ry="3" style="stroke:#038048;stroke-width:1.0;"/><text fill="#000000" font-family="Noto Sans CJK JP" font-size="14" lengthAdjust="spacing" textLength="76" x="447" y="369.7838">&#25351;&#27161;ID &#171;FK&#187;</text><ellipse cx="438" cy="385.4517" fill="none" rx="3" ry="3" style="stroke:#038048;stroke-width:1.0;"/><text fill="#000000" font-family="Noto Sans CJK JP" font-size="14" lengthAdjust="spacing" textLength="14" x="447" y="390.0557">&#24180;</text><ellipse cx="438" cy="405.7236" fill="none" rx="3" ry="3" style="stroke:#038048;stroke-width:1.0;"/><text fill="#000000" font-family="Noto Sans CJK JP" font-size="14" lengthAdjust="spacing" textLength="14" x="447" y="410.3276">&#20516;</text><ellipse cx="438" cy="425.9955" fill="none" rx="3" ry="3" style="stroke:#038048;stroke-width:1.0;"/><text fill="#000000" font-family="Noto Sans CJK JP" font-size="14" lengthAdjust="spacing" textLength="42" x="447" y="430.5995">&#21462;&#24471;&#26085;</text><line style="stroke:#181818;stroke-width:0.5;" x1="428" x2="543" y1="438.6315" y2="438.6315"/></g><!--class Favorite--><g id="elem_Favorite"><rect codeLine="36" fill="#F1F1F1" height="149.3596" id="Favorite" rx="2.5" ry="2.5" style="stroke:#181818;stroke-width:0.5;" width="158" x="198.5" y="287.5"/><ellipse cx="213.5" cy="303.5" fill="#ADD1B2" rx="11" ry="11" style="stroke:#181818;stroke-width:1.0;"/><path d="M217.6094,309.5 L209.8906,309.5 L209.8906,297.1094 L217.6094,297.1094 L217.6094,299.2656 L212.3438,299.2656 L212.3438,301.9375 L217.1094,301.9375 L217.1094,304.0938 L212.3438,304.0938 L212.3438,307.3438 L217.6094,307.3438 L217.6094,309.5 Z " fill="#000000"/><text fill="#000000" font-family="Noto Sans CJK JP" font-size="14" lengthAdjust="spacing" textLength="126" x="227.5" y="309.604">&#12518;&#12540;&#12470;&#12540;&#12362;&#27671;&#12395;&#20837;&#12426;</text><line style="stroke:#181818;stroke-width:0.5;" x1="199.5" x2="355.5" y1="319.5" y2="319.5"/><ellipse cx="209.5" cy="335.136" fill="none" rx="3" ry="3" style="stroke:#038048;stroke-width:1.0;"/><text fill="#000000" font-family="Noto Sans CJK JP" font-size="14" lengthAdjust="spacing" textLength="119" x="218.5" y="339.7399">&#12362;&#27671;&#12395;&#20837;&#12426;ID &#171;PK&#187;</text><ellipse cx="209.5" cy="355.4079" fill="none" rx="3" ry="3" style="stroke:#038048;stroke-width:1.0;"/><text fill="#000000" font-family="Noto Sans CJK JP" font-size="14" lengthAdjust="spacing" textLength="104" x="218.5" y="360.0118">&#12518;&#12540;&#12470;&#12540;ID &#171;FK&#187;</text><ellipse cx="209.5" cy="375.6798" fill="none" rx="3" ry="3" style="stroke:#038048;stroke-width:1.0;"/><text fill="#000000" font-family="Noto Sans CJK JP" font-size="14" lengthAdjust="spacing" textLength="76" x="218.5" y="380.2838">&#22320;&#22495;ID &#171;FK&#187;</text><ellipse cx="209.5" cy="395.9517" fill="none" rx="3" ry="3" style="stroke:#038048;stroke-width:1.0;"/><text fill="#000000" font-family="Noto Sans CJK JP" font-size="14" lengthAdjust="spacing" textLength="76" x="218.5" y="400.5557">&#25351;&#27161;ID &#171;FK&#187;</text><ellipse cx="209.5" cy="416.2236" fill="none" rx="3" ry="3" style="stroke:#038048;stroke-width:1.0;"/><text fill="#000000" font-family="Noto Sans CJK JP" font-size="14" lengthAdjust="spacing" textLength="42" x="218.5" y="420.8276">&#30331;&#37682;&#26085;</text><line style="stroke:#181818;stroke-width:0.5;" x1="199.5" x2="355.5" y1="428.8596" y2="428.8596"/></g><!--link Region to ClimateData--><g id="link_Region_ClimateData"><path codeLine="44" d="M512.1343,164.6973 C507.4243,199.4073 504.6877,219.5131 499.3377,258.9831 " fill="none" id="Region-ClimateData" style="stroke:#181818;stroke-width:1.0;"/><line style="stroke:#181818;stroke-width:1.0;" x1="508.7085" x2="516.6358" y1="160.1958" y2="161.2715"/><line style="stroke:#181818;stroke-width:1.0;" x1="508.3051" x2="516.2324" y1="163.1686" y2="164.2443"/><line style="stroke:#181818;stroke-width:1.0;" x1="512.1343" x2="513.21" y1="164.6973" y2="156.77"/><line style="stroke:#181818;stroke-width:1.0;" x1="497.9945" x2="502.8656" y1="268.8925" y2="277.6259"/><line style="stroke:#181818;stroke-width:1.0;" x1="497.9945" x2="490.9744" y1="268.8925" y2="276.0141"/><line style="stroke:#181818;stroke-width:1.0;" x1="497.9945" x2="496.92" y1="268.8925" y2="276.82"/><ellipse cx="498.8004" cy="262.9469" fill="none" rx="4" ry="4" style="stroke:#181818;stroke-width:1.0;"/><text fill="#000000" font-family="Noto Sans CJK JP" font-size="13" lengthAdjust="spacing" textLength="39" x="503.5" y="243.08">&#22320;&#22495;ID</text></g><!--link Indicator to ClimateData--><g id="link_Indicator_ClimateData"><path codeLine="45" d="M332.6297,204.4284 C339.5897,221.8384 345.16,231.85 355.5,247 C374.53,274.9 387.8566,289.0802 412.6066,308.7802 " fill="none" id="Indicator-ClimateData" style="stroke:#181818;stroke-width:1.0;"/><line style="stroke:#181818;stroke-width:1.0;" x1="327.4306" x2="334.859" y1="202.199" y2="199.2294"/><line style="stroke:#181818;stroke-width:1.0;" x1="328.5442" x2="335.9726" y1="204.9847" y2="202.015"/><line style="stroke:#181818;stroke-width:1.0;" x1="332.6297" x2="329.66" y1="204.4284" y2="197"/><line style="stroke:#181818;stroke-width:1.0;" x1="420.4307" x2="430.4266" y1="315.0079" y2="315.2955"/><line style="stroke:#181818;stroke-width:1.0;" x1="420.4307" x2="422.9534" y1="315.0079" y2="324.6845"/><line style="stroke:#181818;stroke-width:1.0;" x1="420.4307" x2="426.69" y1="315.0079" y2="319.99"/><ellipse cx="415.7363" cy="311.2713" fill="none" rx="4" ry="4" style="stroke:#181818;stroke-width:1.0;"/><text fill="#000000" font-family="Noto Sans CJK JP" font-size="13" lengthAdjust="spacing" textLength="39" x="356.5" y="243.08">&#25351;&#27161;ID</text></g><!--link User to Favorite--><g id="link_User_Favorite"><path codeLine="47" d="M156.8469,183.3969 C171.8969,205.9769 184.11,224.22 199.5,247 C208.36,260.12 207.6752,259.188 216.8652,272.638 " fill="none" id="User-Favorite" style="stroke:#181818;stroke-width:1.0;"/><line style="stroke:#181818;stroke-width:1.0;" x1="151.3" x2="157.9569" y1="182.2869" y2="177.85"/><line style="stroke:#181818;stroke-width:1.0;" x1="152.9639" x2="159.6207" y1="184.7832" y2="180.3463"/><line style="stroke:#181818;stroke-width:1.0;" x1="156.8469" x2="152.41" y1="183.3969" y2="176.74"/><line style="stroke:#181818;stroke-width:1.0;" x1="222.5068" x2="231.974" y1="280.8947" y2="284.1151"/><line style="stroke:#181818;stroke-width:1.0;" x1="222.5068" x2="222.066" y1="280.8947" y2="290.8849"/><line style="stroke:#181818;stroke-width:1.0;" x1="222.5068" x2="227.02" y1="280.8947" y2="287.5"/><ellipse cx="219.1218" cy="275.9406" fill="none" rx="4" ry="4" style="stroke:#181818;stroke-width:1.0;"/><text fill="#000000" font-family="Noto Sans CJK JP" font-size="13" lengthAdjust="spacing" textLength="65" x="200.5" y="243.08">&#12518;&#12540;&#12470;&#12540;ID</text></g><!--link Region to Favorite--><g id="link_Region_Favorite"><path codeLine="48" d="M473.4464,162.9461 C451.0964,190.6461 427.71,218.31 400.5,247 C386.77,261.47 384.6862,264.0114 369.7962,278.0514 " fill="none" id="Region-Favorite" style="stroke:#181818;stroke-width:1.0;"/><line style="stroke:#181818;stroke-width:1.0;" x1="472.8452" x2="479.0713" y1="157.3213" y2="162.3448"/><line style="stroke:#181818;stroke-width:1.0;" x1="470.9614" x2="477.1874" y1="159.656" y2="164.6796"/><line style="stroke:#181818;stroke-width:1.0;" x1="473.4464" x2="478.47" y1="162.9461" y2="156.72"/><line style="stroke:#181818;stroke-width:1.0;" x1="362.5205" x2="360.8162" y1="284.9117" y2="294.7654"/><line style="stroke:#181818;stroke-width:1.0;" x1="362.5205" x2="352.5838" y1="284.9117" y2="286.0346"/><line style="stroke:#181818;stroke-width:1.0;" x1="362.5205" x2="356.7" y1="284.9117" y2="290.4"/><ellipse cx="366.886" cy="280.7955" fill="none" rx="4" ry="4" style="stroke:#181818;stroke-width:1.0;"/><text fill="#000000" font-family="Noto Sans CJK JP" font-size="13" lengthAdjust="spacing" textLength="39" x="418.5" y="243.08">&#22320;&#22495;ID</text></g><!--link Indicator to Favorite--><g id="link_Indicator_Favorite"><path codeLine="49" d="M277.6514,204.9122 C275.7614,214.9622 275.63,217.23 274.5,227 C273.48,235.83 274.38,238.11 274.5,247 C274.67,260.07 274.5085,255.9754 274.8385,269.4254 " fill="none" id="Indicator-Favorite" style="stroke:#181818;stroke-width:1.0;"/><line style="stroke:#181818;stroke-width:1.0;" x1="274.4596" x2="282.3218" y1="200.2418" y2="201.7204"/><line style="stroke:#181818;stroke-width:1.0;" x1="273.9052" x2="281.7674" y1="203.1901" y2="204.6687"/><line style="stroke:#181818;stroke-width:1.0;" x1="277.6514" x2="279.13" y1="204.9122" y2="197.05"/><line style="stroke:#181818;stroke-width:1.0;" x1="275.0838" x2="281.2782" y1="279.4224" y2="287.2728"/><line style="stroke:#181818;stroke-width:1.0;" x1="275.0838" x2="269.2818" y1="279.4224" y2="287.5672"/><line style="stroke:#181818;stroke-width:1.0;" x1="275.0838" x2="275.28" y1="279.4224" y2="287.42"/><ellipse cx="274.9366" cy="273.4242" fill="none" rx="4" ry="4" style="stroke:#181818;stroke-width:1.0;"/><text fill="#000000" font-family="Noto Sans CJK JP" font-size="13" lengthAdjust="spacing" textLength="39" x="275.5" y="243.08">&#25351;&#27161;ID</text></g><!--SRC=[bPFHIW9158Rlzoa6RyCNaEX64rPbis8VOCWjbdGtt2a82tAMa4ApRZ8XaY8ZiaWo0YdpOQRPwYrQPrRTMVMYczspv_mp_pTdpbgRkh45yp07CjewtCwYk6aW1UOq459CP89LQ5WWcaY2H3eaIPg1TBGBGiI-8_O7mM-3ftr5S9VWlXk70BI0QcbvK900cFFBv1YOdqyd5nPuuOdWDi6tnExGqufRKHLvMLqSLg_PlYs2RuXzHEn7rs12SpPmjP-PycYG-gw__vPVd5fJsX-JqiisRJGc65Uq3TqqE2MN27myvP8DFkJL9O8xtCT7uOQAcahHwhExnkVeb4lEVNt2KJOo-Xf4fjSQhX9CUSepfPMBhnwBVXuUdOiJVkOIQsUVu1uBkfvuig2kfDWkrNFwMGkqn6dNw45zj8RHHRDw3Y8j1X4SNfrNdj8NbeeBr48AqEuhVn_SpgGGHgXux4AHOeiUDWa-PaHnk6FcTQHvEA8YC4o1AOl_YrOO6sykzlR2ORCWT2K2Xjj9uwkSgXjwI1Bx4ppDw3mH8087F7swsOO-qSZj3m00]--></g></svg>