<?xml version="1.0" encoding="us-ascii" standalone="no"?><svg xmlns="http://www.w3.org/2000/svg" xmlns:xlink="http://www.w3.org/1999/xlink" contentStyleType="text/css" height="595px" preserveAspectRatio="none" style="width:1745px;height:595px;background:#FFFFFF;" version="1.1" viewBox="0 0 1745 595" width="1745px" zoomAndPan="magnify"><defs/><g><!--cluster GitHub--><g id="cluster_GitHub"><path d="M187.5,126.532 L237.5,126.532 A3.75,3.75 0 0 1 240,129.032 L247,152.8039 L374.5,152.8039 A2.5,2.5 0 0 1 377,155.3039 L377,229.032 A2.5,2.5 0 0 1 374.5,231.532 L187.5,231.532 A2.5,2.5 0 0 1 185,229.032 L185,129.032 A2.5,2.5 0 0 1 187.5,126.532 " fill="none" style="stroke:#000000;stroke-width:1.5;"/><line style="stroke:#000000;stroke-width:1.5;" x1="185" x2="247" y1="152.8039" y2="152.8039"/><text fill="#000000" font-family="Noto Sans CJK JP" font-size="14" font-weight="bold" lengthAdjust="spacing" textLength="49" x="189" y="144.7719">GitHub</text></g><!--cluster Render--><g id="cluster_Render"><path d="M557.5,6.532 L608.5,6.532 A3.75,3.75 0 0 1 611,9.032 L618,32.8039 L725.5,32.8039 A2.5,2.5 0 0 1 728,35.3039 L728,109.032 A2.5,2.5 0 0 1 725.5,111.532 L557.5,111.532 A2.5,2.5 0 0 1 555,109.032 L555,9.032 A2.5,2.5 0 0 1 557.5,6.532 " fill="none" style="stroke:#000000;stroke-width:1.5;"/><line style="stroke:#000000;stroke-width:1.5;" x1="555" x2="618" y1="32.8039" y2="32.8039"/><text fill="#000000" font-family="Noto Sans CJK JP" font-size="14" font-weight="bold" lengthAdjust="spacing" textLength="50" x="559" y="24.7719">Render</text></g><!--cluster Google Cloud--><g id="cluster_Google Cloud"><path d="M569.5,135.532 L661.5,135.532 A3.75,3.75 0 0 1 664,138.032 L671,161.8039 L1729,161.8039 A2.5,2.5 0 0 1 1731.5,164.3039 L1731.5,328.032 A2.5,2.5 0 0 1 1729,330.532 L569.5,330.532 A2.5,2.5 0 0 1 567,328.032 L567,138.032 A2.5,2.5 0 0 1 569.5,135.532 " fill="none" style="stroke:#000000;stroke-width:1.5;"/><line style="stroke:#000000;stroke-width:1.5;" x1="567" x2="671" y1="161.8039" y2="161.8039"/><text fill="#000000" font-family="Noto Sans CJK JP" font-size="14" font-weight="bold" lengthAdjust="spacing" textLength="91" x="571" y="153.7719">Google Cloud</text></g><!--cluster Neon--><g id="cluster_Neon"><path d="M1554.5,354.532 L1591.5,354.532 A3.75,3.75 0 0 1 1594,357.032 L1601,380.8039 L1735.5,380.8039 A2.5,2.5 0 0 1 1738,383.3039 L1738,457.032 A2.5,2.5 0 0 1 1735.5,459.532 L1554.5,459.532 A2.5,2.5 0 0 1 1552,457.032 L1552,357.032 A2.5,2.5 0 0 1 1554.5,354.532 " fill="none" style="stroke:#000000;stroke-width:1.5;"/><line style="stroke:#000000;stroke-width:1.5;" x1="1552" x2="1601" y1="380.8039" y2="380.8039"/><text fill="#000000" font-family="Noto Sans CJK JP" font-size="14" font-weight="bold" lengthAdjust="spacing" textLength="36" x="1556" y="372.7719">Neon</text></g><!--cluster External APIs--><g id="cluster_External APIs"><path d="M1556.5,483.532 L1648.5,483.532 A3.75,3.75 0 0 1 1651,486.032 L1658,509.8039 L1733.5,509.8039 A2.5,2.5 0 0 1 1736,512.3039 L1736,586.032 A2.5,2.5 0 0 1 1733.5,588.532 L1556.5,588.532 A2.5,2.5 0 0 1 1554,586.032 L1554,486.032 A2.5,2.5 0 0 1 1556.5,483.532 " fill="none" style="stroke:#000000;stroke-width:1.5;"/><line style="stroke:#000000;stroke-width:1.5;" x1="1554" x2="1658" y1="509.8039" y2="509.8039"/><text fill="#000000" font-family="Noto Sans CJK JP" font-size="14" font-weight="bold" lengthAdjust="spacing" textLength="91" x="1558" y="501.7719">External APIs</text></g><!--entity GitHubRepo--><g id="elem_GitHubRepo"><rect fill="#F1F1F1" height="50.2719" rx="2.5" ry="2.5" style="stroke:#181818;stroke-width:0.5;" width="160" x="201" y="165.532"/><rect fill="#F1F1F1" height="10" style="stroke:#181818;stroke-width:0.5;" width="15" x="341" y="170.532"/><rect fill="#F1F1F1" height="2" style="stroke:#181818;stroke-width:0.5;" width="4" x="339" y="172.532"/><rect fill="#F1F1F1" height="2" style="stroke:#181818;stroke-width:0.5;" width="4" x="339" y="176.532"/><text fill="#000000" font-family="Noto Sans CJK JP" font-size="14" lengthAdjust="spacing" textLength="120" x="216" y="201.7719">GitHub Repository</text></g><!--entity Frontend--><g id="elem_Frontend"><rect fill="#F1F1F1" height="50.2719" rx="2.5" ry="2.5" style="stroke:#181818;stroke-width:0.5;" width="141" x="571" y="45.532"/><rect fill="#F1F1F1" height="10" style="stroke:#181818;stroke-width:0.5;" width="15" x="692" y="50.532"/><rect fill="#F1F1F1" height="2" style="stroke:#181818;stroke-width:0.5;" width="4" x="690" y="52.532"/><rect fill="#F1F1F1" height="2" style="stroke:#181818;stroke-width:0.5;" width="4" x="690" y="56.532"/><text fill="#000000" font-family="Noto Sans CJK JP" font-size="14" lengthAdjust="spacing" textLength="101" x="586" y="81.7719">React Frontend</text></g><!--entity CloudBuild--><g id="elem_CloudBuild"><rect fill="#F1F1F1" height="50.2719" rx="2.5" ry="2.5" style="stroke:#181818;stroke-width:0.5;" width="117" x="583" y="174.532"/><rect fill="#F1F1F1" height="10" style="stroke:#181818;stroke-width:0.5;" width="15" x="680" y="179.532"/><rect fill="#F1F1F1" height="2" style="stroke:#181818;stroke-width:0.5;" width="4" x="678" y="181.532"/><rect fill="#F1F1F1" height="2" style="stroke:#181818;stroke-width:0.5;" width="4" x="678" y="185.532"/><text fill="#000000" font-family="Noto Sans CJK JP" font-size="14" lengthAdjust="spacing" textLength="77" x="598" y="210.7719">Cloud Build</text></g><!--entity ArtifactRegistry--><g id="elem_ArtifactRegistry"><rect fill="#F1F1F1" height="50.2719" rx="2.5" ry="2.5" style="stroke:#181818;stroke-width:0.5;" width="144" x="909" y="264.532"/><rect fill="#F1F1F1" height="10" style="stroke:#181818;stroke-width:0.5;" width="15" x="1033" y="269.532"/><rect fill="#F1F1F1" height="2" style="stroke:#181818;stroke-width:0.5;" width="4" x="1031" y="271.532"/><rect fill="#F1F1F1" height="2" style="stroke:#181818;stroke-width:0.5;" width="4" x="1031" y="275.532"/><text fill="#000000" font-family="Noto Sans CJK JP" font-size="14" lengthAdjust="spacing" textLength="104" x="924" y="300.7719">Artifact Registry</text></g><!--entity CloudRun--><g id="elem_CloudRun"><rect fill="#F1F1F1" height="50.2719" rx="2.5" ry="2.5" style="stroke:#181818;stroke-width:0.5;" width="210" x="1179" y="254.532"/><rect fill="#F1F1F1" height="10" style="stroke:#181818;stroke-width:0.5;" width="15" x="1369" y="259.532"/><rect fill="#F1F1F1" height="2" style="stroke:#181818;stroke-width:0.5;" width="4" x="1367" y="261.532"/><rect fill="#F1F1F1" height="2" style="stroke:#181818;stroke-width:0.5;" width="4" x="1367" y="265.532"/><text fill="#000000" font-family="Noto Sans CJK JP" font-size="14" lengthAdjust="spacing" textLength="170" x="1194" y="290.7719">Cloud Run (DRF Backend)</text></g><!--entity Logging--><g id="elem_Logging"><rect fill="#F1F1F1" height="50.2719" rx="2.5" ry="2.5" style="stroke:#181818;stroke-width:0.5;" width="135" x="1577.5" y="262.532"/><rect fill="#F1F1F1" height="10" style="stroke:#181818;stroke-width:0.5;" width="15" x="1692.5" y="267.532"/><rect fill="#F1F1F1" height="2" style="stroke:#181818;stroke-width:0.5;" width="4" x="1690.5" y="269.532"/><rect fill="#F1F1F1" height="2" style="stroke:#181818;stroke-width:0.5;" width="4" x="1690.5" y="273.532"/><text fill="#000000" font-family="Noto Sans CJK JP" font-size="14" lengthAdjust="spacing" textLength="95" x="1592.5" y="298.7719">Cloud Logging</text></g><!--entity SecretManager--><g id="elem_SecretManager"><rect fill="#F1F1F1" height="50.2719" rx="2.5" ry="2.5" style="stroke:#181818;stroke-width:0.5;" width="141" x="1574.5" y="177.532"/><rect fill="#F1F1F1" height="10" style="stroke:#181818;stroke-width:0.5;" width="15" x="1695.5" y="182.532"/><rect fill="#F1F1F1" height="2" style="stroke:#181818;stroke-width:0.5;" width="4" x="1693.5" y="184.532"/><rect fill="#F1F1F1" height="2" style="stroke:#181818;stroke-width:0.5;" width="4" x="1693.5" y="188.532"/><text fill="#000000" font-family="Noto Sans CJK JP" font-size="14" lengthAdjust="spacing" textLength="101" x="1589.5" y="213.7719">Secret Manager</text></g><!--entity NeonPostgreSQL--><g id="elem_NeonPostgreSQL"><rect fill="#F1F1F1" height="50.2719" rx="2.5" ry="2.5" style="stroke:#181818;stroke-width:0.5;" width="154" x="1568" y="393.532"/><rect fill="#F1F1F1" height="10" style="stroke:#181818;stroke-width:0.5;" width="15" x="1702" y="398.532"/><rect fill="#F1F1F1" height="2" style="stroke:#181818;stroke-width:0.5;" width="4" x="1700" y="400.532"/><rect fill="#F1F1F1" height="2" style="stroke:#181818;stroke-width:0.5;" width="4" x="1700" y="404.532"/><text fill="#000000" font-family="Noto Sans CJK JP" font-size="14" lengthAdjust="spacing" textLength="114" x="1583" y="429.7719">Neon PostgreSQL</text></g><!--entity ClimateAPI--><g id="elem_ClimateAPI"><rect fill="#F1F1F1" height="50.2719" rx="2.5" ry="2.5" style="stroke:#181818;stroke-width:0.5;" width="150" x="1570" y="522.532"/><rect fill="#F1F1F1" height="10" style="stroke:#181818;stroke-width:0.5;" width="15" x="1700" y="527.532"/><rect fill="#F1F1F1" height="2" style="stroke:#181818;stroke-width:0.5;" width="4" x="1698" y="529.532"/><rect fill="#F1F1F1" height="2" style="stroke:#181818;stroke-width:0.5;" width="4" x="1698" y="533.532"/><text fill="#000000" font-family="Noto Sans CJK JP" font-size="14" lengthAdjust="spacing" textLength="110" x="1585" y="558.7719">Climate Data API</text></g><!--entity User--><g id="elem_User"><ellipse cx="281" cy="39.032" fill="#F1F1F1" rx="8" ry="8" style="stroke:#181818;stroke-width:0.5;"/><path d="M281,47.032 L281,74.032 M268,55.032 L294,55.032 M281,74.032 L268,89.032 M281,74.032 L294,89.032 " fill="none" style="stroke:#181818;stroke-width:0.5;"/><text fill="#000000" font-family="Noto Sans CJK JP" font-size="14" lengthAdjust="spacing" textLength="30" x="266" y="106.7719">User</text></g><!--entity Developer--><g id="elem_Developer"><ellipse cx="39.5" cy="159.032" fill="#F1F1F1" rx="8" ry="8" style="stroke:#181818;stroke-width:0.5;"/><path d="M39.5,167.032 L39.5,194.032 M26.5,175.032 L52.5,175.032 M39.5,194.032 L26.5,209.032 M39.5,194.032 L52.5,209.032 " fill="none" style="stroke:#181818;stroke-width:0.5;"/><text fill="#000000" font-family="Noto Sans CJK JP" font-size="14" lengthAdjust="spacing" textLength="67" x="6" y="226.7719">Developer</text></g><!--link Developer to GitHubRepo--><g id="link_Developer_GitHubRepo"><path d="M73.3,190.532 C106.03,190.532 151.57,190.532 194.99,190.532 " fill="none" id="Developer-to-GitHubRepo" style="stroke:#181818;stroke-width:1.0;"/><polygon fill="#181818" points="200.99,190.532,191.99,186.532,195.99,190.532,191.99,194.532,200.99,190.532" style="stroke:#181818;stroke-width:1.0;"/><text fill="#000000" font-family="Noto Sans CJK JP" font-size="13" lengthAdjust="spacing" textLength="64" x="104" y="186.612">Push Code</text></g><!--link GitHubRepo to CloudBuild--><g id="link_GitHubRepo_CloudBuild"><path d="M361.12,194.372 C371.83,194.812 382.68,195.212 393,195.532 C458.08,197.522 526.8103,198.501 576.9803,199.011 " fill="none" id="GitHubRepo-to-CloudBuild" style="stroke:#181818;stroke-width:1.0;"/><polygon fill="#181818" points="582.98,199.072,574.0211,194.9807,577.9803,199.0212,573.9398,202.9803,582.98,199.072" style="stroke:#181818;stroke-width:1.0;"/><text fill="#000000" font-family="Noto Sans CJK JP" font-size="13" lengthAdjust="spacing" textLength="144" x="394" y="191.612">Trigger CI/CD (Backend)</text></g><!--link CloudBuild to ArtifactRegistry--><g id="link_CloudBuild_ArtifactRegistry"><path d="M700.13,214.902 C757.84,230.292 840.9525,252.4562 903.0225,269.0062 " fill="none" id="CloudBuild-to-ArtifactRegistry" style="stroke:#181818;stroke-width:1.0;"/><polygon fill="#181818" points="908.82,270.552,901.1544,264.3683,903.9888,269.2638,899.0933,272.0983,908.82,270.552" style="stroke:#181818;stroke-width:1.0;"/><text fill="#000000" font-family="Noto Sans CJK JP" font-size="13" lengthAdjust="spacing" textLength="133" x="745" y="225.612">Push Container Image</text></g><!--link CloudBuild to CloudRun--><g id="link_CloudBuild_CloudRun"><path d="M700.01,197.102 C747.99,195.772 818.12,195.452 879,201.532 C982.78,211.902 1093.742,234.4699 1174.962,253.1099 " fill="none" id="CloudBuild-to-CloudRun" style="stroke:#181818;stroke-width:1.0;"/><polygon fill="#181818" points="1180.81,254.452,1172.9328,248.5402,1175.9367,253.3336,1171.1433,256.3375,1180.81,254.452" style="stroke:#181818;stroke-width:1.0;"/><text fill="#000000" font-family="Noto Sans CJK JP" font-size="13" lengthAdjust="spacing" textLength="83" x="939.5" y="201.612">Deploy Image</text></g><!--link ArtifactRegistry to CloudRun--><g id="link_ArtifactRegistry_CloudRun"><path d="M1053.33,287.162 C1090.8,285.922 1131.4133,284.5718 1172.8333,283.1918 " fill="none" id="ArtifactRegistry-to-CloudRun" style="stroke:#181818;stroke-width:1.0;"/><polygon fill="#181818" points="1178.83,282.992,1169.7018,279.2939,1173.8328,283.1585,1169.9682,287.2895,1178.83,282.992" style="stroke:#181818;stroke-width:1.0;"/><text fill="#000000" font-family="Noto Sans CJK JP" font-size="13" lengthAdjust="spacing" textLength="64" x="1084" y="280.612">Pull Image</text></g><!--link GitHubRepo to Frontend--><g id="link_GitHubRepo_Frontend"><path d="M356.72,165.522 C419.72,144.432 503.5001,116.386 565.0601,95.786 " fill="none" id="GitHubRepo-to-Frontend" style="stroke:#181818;stroke-width:1.0;"/><polygon fill="#181818" points="570.75,93.882,560.9458,92.9448,566.0084,95.4687,563.4845,100.5313,570.75,93.882" style="stroke:#181818;stroke-width:1.0;"/><text fill="#000000" font-family="Noto Sans CJK JP" font-size="13" lengthAdjust="spacing" textLength="143" x="394.5" y="102.612">Trigger Deploy (Render)</text></g><!--link CloudRun to SecretManager--><g id="link_CloudRun_SecretManager"><path d="M1389.32,257.152 C1448.84,244.392 1515.9536,230.0012 1568.5036,218.7212 " fill="none" id="CloudRun-to-SecretManager" style="stroke:#181818;stroke-width:1.0;"/><polygon fill="#181818" points="1574.37,217.462,1564.731,215.4399,1569.4814,218.5113,1566.4099,223.2617,1574.37,217.462" style="stroke:#181818;stroke-width:1.0;"/><text fill="#000000" font-family="Noto Sans CJK JP" font-size="13" lengthAdjust="spacing" textLength="82" x="1436.5" y="223.612">Fetch Secrets</text></g><!--link User to Frontend--><g id="link_User_Frontend"><path d="M296.05,70.532 C341.1,70.532 478.04,70.532 564.99,70.532 " fill="none" id="User-to-Frontend" style="stroke:#181818;stroke-width:1.0;"/><polygon fill="#181818" points="570.99,70.532,561.99,66.532,565.99,70.532,561.99,74.532,570.99,70.532" style="stroke:#181818;stroke-width:1.0;"/><text fill="#000000" font-family="Noto Sans CJK JP" font-size="13" lengthAdjust="spacing" textLength="85" x="423.5" y="66.612">HTTP Request</text></g><!--link Frontend to CloudRun--><g id="link_Frontend_CloudRun"><path d="M712.16,85.062 C794.66,103.092 935.68,136.532 1053,177.532 C1116.5,199.722 1181.4414,229.5137 1227.4014,251.8037 " fill="none" id="Frontend-to-CloudRun" style="stroke:#181818;stroke-width:1.0;"/><polygon fill="#181818" points="1232.8,254.422,1226.4476,246.8956,1228.3012,252.2401,1222.9566,254.0937,1232.8,254.422" style="stroke:#181818;stroke-width:1.0;"/><text fill="#000000" font-family="Noto Sans CJK JP" font-size="13" lengthAdjust="spacing" textLength="72" x="945" y="130.612">API Request</text></g><!--link CloudRun to NeonPostgreSQL--><g id="link_CloudRun_NeonPostgreSQL"><path d="M1349.6,304.542 C1414.6,329.712 1508.6847,366.1458 1573.7247,391.3258 " fill="none" id="CloudRun-to-NeonPostgreSQL" style="stroke:#181818;stroke-width:1.0;"/><polygon fill="#181818" points="1579.32,393.492,1572.3712,386.5125,1574.6572,391.6868,1569.4829,393.9729,1579.32,393.492" style="stroke:#181818;stroke-width:1.0;"/><text fill="#000000" font-family="Noto Sans CJK JP" font-size="13" lengthAdjust="spacing" textLength="62" x="1446.5" y="328.612">DB Access</text></g><!--link CloudRun to ClimateAPI--><g id="link_CloudRun_ClimateAPI"><path d="M1310.04,304.942 C1336.13,330.822 1378.76,371.462 1419,402.532 C1478.95,448.832 1548.6121,491.9035 1595.0621,519.3035 " fill="none" id="CloudRun-to-ClimateAPI" style="stroke:#181818;stroke-width:1.0;"/><polygon fill="#181818" points="1600.23,522.352,1594.5105,514.3341,1595.9234,519.8116,1590.4459,521.2246,1600.23,522.352" style="stroke:#181818;stroke-width:1.0;"/><text fill="#000000" font-family="Noto Sans CJK JP" font-size="13" lengthAdjust="spacing" textLength="115" x="1420" y="398.612">Fetch Climate Data</text></g><!--link CloudRun to Logging--><g id="link_CloudRun_Logging"><path d="M1389.32,281.852 C1449.98,283.212 1518.6215,284.7378 1571.3715,285.9178 " fill="none" id="CloudRun-to-Logging" style="stroke:#181818;stroke-width:1.0;stroke-dasharray:7.0,7.0;"/><polygon fill="#181818" points="1577.37,286.052,1568.4617,281.8517,1572.3713,285.9402,1568.2828,289.8497,1577.37,286.052" style="stroke:#181818;stroke-width:1.0;"/><text fill="#000000" font-family="Noto Sans CJK JP" font-size="13" lengthAdjust="spacing" textLength="62" x="1446.5" y="279.612">Send Logs</text></g><!--SRC=[RLFBRjD05DtFLrnbGxfesREeb0TfKqfadF01WttZZEhCc9anea8iY2KUAWjM85QeY1M2iaH2_Cq81Vw26SUE7ydEz-JSC-VUUw8k64-ef4i8SKxJM8y4rnEwHEXCX1OmfLp1uEmUd7aT4kDSWmKbYnOQGYOnq4nmGcYWXOI72cNnESGd68l4rYIXmGMDhDu9qwVfemuy8m21M2Q28zSb33ucGZ7RUza1gc23Ef0yhsduo4EKEne-scTX9ArtIyW5ogBHVY9452CCOf66Eo8v2lsKnHk5lCxB9gydDPkxztoCcDA5uH8jmNtQVigXE_H7qBU6hBU3wXtxqxwESn55Z4Svh_XkqgOOIDHmdt8xeCnv6wX06kDFKF2TiHq8db0waZXzS9vBEAo26XftdsgKdCRGyyPgpmxPacg48TNKCOe1Sz2MJkaM_7j_jVxuoxouCgit9djbiWyc-svMNyWsDN1uU5oB0Dm1BrKB68WGIGrshEfAbZMpoRH3ms1yUp24RhbcKYEvdlQjAdskAUDMOBoqmxRRoaDP-X2JM5mMj1sv5jbBuxYWjjsNAQrvBwIxcwWVk8MPrK-J_JQh7oRxPhBCPA_NDzVhTo_9zX6drRYx5HoX3XO5gZOod_DTV_rpy-dlzLlY_gzj5wUpcMU3_JX5fSaMRmraBxdbD2mqS-Fsr8TU4A1IJLwLYAtFUd8gyj7HSPbxovmwBxPKv3y0]--></g></svg>