<?xml version="1.0" encoding="us-ascii" standalone="no"?><svg xmlns="http://www.w3.org/2000/svg" xmlns:xlink="http://www.w3.org/1999/xlink" contentStyleType="text/css" height="579px" preserveAspectRatio="none" style="width:1802px;height:579px;background:#FFFFFF;" version="1.1" viewBox="0 0 1802 579" width="1802px" zoomAndPan="magnify"><defs/><g><!--cluster Render--><g id="cluster_Render"><path d="M978.5,62.5 L1029.5,62.5 A3.75,3.75 0 0 1 1032,65 L1039,88.7719 L1146.5,88.7719 A2.5,2.5 0 0 1 1149,91.2719 L1149,165 A2.5,2.5 0 0 1 1146.5,167.5 L978.5,167.5 A2.5,2.5 0 0 1 976,165 L976,65 A2.5,2.5 0 0 1 978.5,62.5 " fill="none" style="stroke:#000000;stroke-width:1.5;"/><line style="stroke:#000000;stroke-width:1.5;" x1="976" x2="1039" y1="88.7719" y2="88.7719"/><text fill="#000000" font-family="Noto Sans CJK JP" font-size="14" font-weight="bold" lengthAdjust="spacing" textLength="50" x="980" y="80.7399">Render</text></g><!--cluster Google Cloud--><g id="cluster_Google Cloud"><path d="M626.5,191.5 L718.5,191.5 A3.75,3.75 0 0 1 721,194 L728,217.7719 L1786,217.7719 A2.5,2.5 0 0 1 1788.5,220.2719 L1788.5,384 A2.5,2.5 0 0 1 1786,386.5 L626.5,386.5 A2.5,2.5 0 0 1 624,384 L624,194 A2.5,2.5 0 0 1 626.5,191.5 " fill="none" style="stroke:#000000;stroke-width:1.5;"/><line style="stroke:#000000;stroke-width:1.5;" x1="624" x2="728" y1="217.7719" y2="217.7719"/><text fill="#000000" font-family="Noto Sans CJK JP" font-size="14" font-weight="bold" lengthAdjust="spacing" textLength="91" x="628" y="209.7399">Google Cloud</text></g><!--cluster Neon--><g id="cluster_Neon"><path d="M1611.5,410.5 L1648.5,410.5 A3.75,3.75 0 0 1 1651,413 L1658,436.7719 L1792.5,436.7719 A2.5,2.5 0 0 1 1795,439.2719 L1795,513 A2.5,2.5 0 0 1 1792.5,515.5 L1611.5,515.5 A2.5,2.5 0 0 1 1609,513 L1609,413 A2.5,2.5 0 0 1 1611.5,410.5 " fill="none" style="stroke:#000000;stroke-width:1.5;"/><line style="stroke:#000000;stroke-width:1.5;" x1="1609" x2="1658" y1="436.7719" y2="436.7719"/><text fill="#000000" font-family="Noto Sans CJK JP" font-size="14" font-weight="bold" lengthAdjust="spacing" textLength="36" x="1613" y="428.7399">Neon</text></g><!--cluster External APIs--><g id="cluster_External APIs"><path d="M590.5,467.5 L682.5,467.5 A3.75,3.75 0 0 1 685,470 L692,493.7719 L806.5,493.7719 A2.5,2.5 0 0 1 809,496.2719 L809,570 A2.5,2.5 0 0 1 806.5,572.5 L590.5,572.5 A2.5,2.5 0 0 1 588,570 L588,470 A2.5,2.5 0 0 1 590.5,467.5 " fill="none" style="stroke:#000000;stroke-width:1.5;"/><line style="stroke:#000000;stroke-width:1.5;" x1="588" x2="692" y1="493.7719" y2="493.7719"/><text fill="#000000" font-family="Noto Sans CJK JP" font-size="14" font-weight="bold" lengthAdjust="spacing" textLength="91" x="592" y="485.7399">External APIs</text></g><!--cluster GitHub--><g id="cluster_GitHub"><path d="M187.5,281.5 L237.5,281.5 A3.75,3.75 0 0 1 240,284 L247,307.7719 L436.5,307.7719 A2.5,2.5 0 0 1 439,310.2719 L439,469 A2.5,2.5 0 0 1 436.5,471.5 L187.5,471.5 A2.5,2.5 0 0 1 185,469 L185,284 A2.5,2.5 0 0 1 187.5,281.5 " fill="none" style="stroke:#000000;stroke-width:1.5;"/><line style="stroke:#000000;stroke-width:1.5;" x1="185" x2="247" y1="307.7719" y2="307.7719"/><text fill="#000000" font-family="Noto Sans CJK JP" font-size="14" font-weight="bold" lengthAdjust="spacing" textLength="49" x="189" y="299.7399">GitHub</text></g><!--entity Frontend--><g id="elem_Frontend"><rect fill="#F1F1F1" height="50.2719" rx="2.5" ry="2.5" style="stroke:#181818;stroke-width:0.5;" width="141" x="992" y="101.5"/><rect fill="#F1F1F1" height="10" style="stroke:#181818;stroke-width:0.5;" width="15" x="1113" y="106.5"/><rect fill="#F1F1F1" height="2" style="stroke:#181818;stroke-width:0.5;" width="4" x="1111" y="108.5"/><rect fill="#F1F1F1" height="2" style="stroke:#181818;stroke-width:0.5;" width="4" x="1111" y="112.5"/><text fill="#000000" font-family="Noto Sans CJK JP" font-size="14" lengthAdjust="spacing" textLength="101" x="1007" y="137.7399">React Frontend</text></g><!--entity CloudBuild--><g id="elem_CloudBuild"><rect fill="#F1F1F1" height="50.2719" rx="2.5" ry="2.5" style="stroke:#181818;stroke-width:0.5;" width="117" x="640" y="310.5"/><rect fill="#F1F1F1" height="10" style="stroke:#181818;stroke-width:0.5;" width="15" x="737" y="315.5"/><rect fill="#F1F1F1" height="2" style="stroke:#181818;stroke-width:0.5;" width="4" x="735" y="317.5"/><rect fill="#F1F1F1" height="2" style="stroke:#181818;stroke-width:0.5;" width="4" x="735" y="321.5"/><text fill="#000000" font-family="Noto Sans CJK JP" font-size="14" lengthAdjust="spacing" textLength="77" x="655" y="346.7399">Cloud Build</text></g><!--entity ArtifactRegistry--><g id="elem_ArtifactRegistry"><rect fill="#F1F1F1" height="50.2719" rx="2.5" ry="2.5" style="stroke:#181818;stroke-width:0.5;" width="144" x="990.5" y="320.5"/><rect fill="#F1F1F1" height="10" style="stroke:#181818;stroke-width:0.5;" width="15" x="1114.5" y="325.5"/><rect fill="#F1F1F1" height="2" style="stroke:#181818;stroke-width:0.5;" width="4" x="1112.5" y="327.5"/><rect fill="#F1F1F1" height="2" style="stroke:#181818;stroke-width:0.5;" width="4" x="1112.5" y="331.5"/><text fill="#000000" font-family="Noto Sans CJK JP" font-size="14" lengthAdjust="spacing" textLength="104" x="1005.5" y="356.7399">Artifact Registry</text></g><!--entity CloudRun--><g id="elem_CloudRun"><rect fill="#F1F1F1" height="50.2719" rx="2.5" ry="2.5" style="stroke:#181818;stroke-width:0.5;" width="210" x="1269" y="271.5"/><rect fill="#F1F1F1" height="10" style="stroke:#181818;stroke-width:0.5;" width="15" x="1459" y="276.5"/><rect fill="#F1F1F1" height="2" style="stroke:#181818;stroke-width:0.5;" width="4" x="1457" y="278.5"/><rect fill="#F1F1F1" height="2" style="stroke:#181818;stroke-width:0.5;" width="4" x="1457" y="282.5"/><text fill="#000000" font-family="Noto Sans CJK JP" font-size="14" lengthAdjust="spacing" textLength="170" x="1284" y="307.7399">Cloud Run (DRF Backend)</text></g><!--entity Logging--><g id="elem_Logging"><rect fill="#F1F1F1" height="50.2719" rx="2.5" ry="2.5" style="stroke:#181818;stroke-width:0.5;" width="135" x="1634.5" y="315.5"/><rect fill="#F1F1F1" height="10" style="stroke:#181818;stroke-width:0.5;" width="15" x="1749.5" y="320.5"/><rect fill="#F1F1F1" height="2" style="stroke:#181818;stroke-width:0.5;" width="4" x="1747.5" y="322.5"/><rect fill="#F1F1F1" height="2" style="stroke:#181818;stroke-width:0.5;" width="4" x="1747.5" y="326.5"/><text fill="#000000" font-family="Noto Sans CJK JP" font-size="14" lengthAdjust="spacing" textLength="95" x="1649.5" y="351.7399">Cloud Logging</text></g><!--entity SecretManager--><g id="elem_SecretManager"><rect fill="#F1F1F1" height="50.2719" rx="2.5" ry="2.5" style="stroke:#181818;stroke-width:0.5;" width="141" x="1631.5" y="230.5"/><rect fill="#F1F1F1" height="10" style="stroke:#181818;stroke-width:0.5;" width="15" x="1752.5" y="235.5"/><rect fill="#F1F1F1" height="2" style="stroke:#181818;stroke-width:0.5;" width="4" x="1750.5" y="237.5"/><rect fill="#F1F1F1" height="2" style="stroke:#181818;stroke-width:0.5;" width="4" x="1750.5" y="241.5"/><text fill="#000000" font-family="Noto Sans CJK JP" font-size="14" lengthAdjust="spacing" textLength="101" x="1646.5" y="266.7399">Secret Manager</text></g><!--entity NeonPostgreSQL--><g id="elem_NeonPostgreSQL"><rect fill="#F1F1F1" height="50.2719" rx="2.5" ry="2.5" style="stroke:#181818;stroke-width:0.5;" width="154" x="1625" y="449.5"/><rect fill="#F1F1F1" height="10" style="stroke:#181818;stroke-width:0.5;" width="15" x="1759" y="454.5"/><rect fill="#F1F1F1" height="2" style="stroke:#181818;stroke-width:0.5;" width="4" x="1757" y="456.5"/><rect fill="#F1F1F1" height="2" style="stroke:#181818;stroke-width:0.5;" width="4" x="1757" y="460.5"/><text fill="#000000" font-family="Noto Sans CJK JP" font-size="14" lengthAdjust="spacing" textLength="114" x="1640" y="485.7399">Neon PostgreSQL</text></g><!--entity OWIDAPI--><g id="elem_OWIDAPI"><rect fill="#F1F1F1" height="50.2719" rx="2.5" ry="2.5" style="stroke:#181818;stroke-width:0.5;" width="189" x="604" y="506.5"/><rect fill="#F1F1F1" height="10" style="stroke:#181818;stroke-width:0.5;" width="15" x="773" y="511.5"/><rect fill="#F1F1F1" height="2" style="stroke:#181818;stroke-width:0.5;" width="4" x="771" y="513.5"/><rect fill="#F1F1F1" height="2" style="stroke:#181818;stroke-width:0.5;" width="4" x="771" y="517.5"/><text fill="#000000" font-family="Noto Sans CJK JP" font-size="14" lengthAdjust="spacing" textLength="149" x="619" y="542.7399">OWID Climate Data API</text></g><!--entity GitHubRepo--><g id="elem_GitHubRepo"><rect fill="#F1F1F1" height="50.2719" rx="2.5" ry="2.5" style="stroke:#181818;stroke-width:0.5;" width="160" x="232" y="320.5"/><rect fill="#F1F1F1" height="10" style="stroke:#181818;stroke-width:0.5;" width="15" x="372" y="325.5"/><rect fill="#F1F1F1" height="2" style="stroke:#181818;stroke-width:0.5;" width="4" x="370" y="327.5"/><rect fill="#F1F1F1" height="2" style="stroke:#181818;stroke-width:0.5;" width="4" x="370" y="331.5"/><text fill="#000000" font-family="Noto Sans CJK JP" font-size="14" lengthAdjust="spacing" textLength="120" x="247" y="356.7399">GitHub Repository</text></g><!--entity GitHubActions--><g id="elem_GitHubActions"><rect fill="#F1F1F1" height="50.2719" rx="2.5" ry="2.5" style="stroke:#181818;stroke-width:0.5;" width="222" x="201" y="405.5"/><rect fill="#F1F1F1" height="10" style="stroke:#181818;stroke-width:0.5;" width="15" x="403" y="410.5"/><rect fill="#F1F1F1" height="2" style="stroke:#181818;stroke-width:0.5;" width="4" x="401" y="412.5"/><rect fill="#F1F1F1" height="2" style="stroke:#181818;stroke-width:0.5;" width="4" x="401" y="416.5"/><text fill="#000000" font-family="Noto Sans CJK JP" font-size="14" lengthAdjust="spacing" textLength="182" x="216" y="441.7399">GitHub Actions (&#23450;&#26399;&#12496;&#12483;&#12481;)</text></g><!--entity User--><g id="elem_User"><ellipse cx="698.5" cy="14" fill="#F1F1F1" rx="8" ry="8" style="stroke:#181818;stroke-width:0.5;"/><path d="M698.5,22 L698.5,49 M685.5,30 L711.5,30 M698.5,49 L685.5,64 M698.5,49 L711.5,64 " fill="none" style="stroke:#181818;stroke-width:0.5;"/><text fill="#000000" font-family="Noto Sans CJK JP" font-size="14" lengthAdjust="spacing" textLength="30" x="683.5" y="81.7399">User</text></g><!--entity Developer--><g id="elem_Developer"><ellipse cx="39.5" cy="314" fill="#F1F1F1" rx="8" ry="8" style="stroke:#181818;stroke-width:0.5;"/><path d="M39.5,322 L39.5,349 M26.5,330 L52.5,330 M39.5,349 L26.5,364 M39.5,349 L52.5,364 " fill="none" style="stroke:#181818;stroke-width:0.5;"/><text fill="#000000" font-family="Noto Sans CJK JP" font-size="14" lengthAdjust="spacing" textLength="67" x="6" y="381.7399">Developer</text></g><!--link Developer to GitHubRepo--><g id="link_Developer_GitHubRepo"><path d="M73.13,345.5 C112.19,345.5 172.96,345.5 225.84,345.5 " fill="none" id="Developer-to-GitHubRepo" style="stroke:#181818;stroke-width:1.0;"/><polygon fill="#181818" points="231.84,345.5,222.84,341.5,226.84,345.5,222.84,349.5,231.84,345.5" style="stroke:#181818;stroke-width:1.0;"/><text fill="#000000" font-family="Noto Sans CJK JP" font-size="13" lengthAdjust="spacing" textLength="64" x="104" y="341.58">Push Code</text></g><!--link GitHubRepo to CloudBuild--><g id="link_GitHubRepo_CloudBuild"><path d="M392.2,343.44 C465.96,341.52 568.142,338.8658 633.972,337.1558 " fill="none" id="GitHubRepo-to-CloudBuild" style="stroke:#181818;stroke-width:1.0;"/><polygon fill="#181818" points="639.97,337,630.8692,333.2351,634.9717,337.1298,631.0769,341.2324,639.97,337" style="stroke:#181818;stroke-width:1.0;"/><text fill="#000000" font-family="Noto Sans CJK JP" font-size="13" lengthAdjust="spacing" textLength="80" x="473.5" y="335.58">Trigger CI/CD</text></g><!--link CloudBuild to ArtifactRegistry--><g id="link_CloudBuild_ArtifactRegistry"><path d="M757.26,337.1 C820.54,338.84 916.0923,341.4846 984.2623,343.3646 " fill="none" id="CloudBuild-to-ArtifactRegistry" style="stroke:#181818;stroke-width:1.0;"/><polygon fill="#181818" points="990.26,343.53,981.3737,339.2834,985.2619,343.3922,981.1532,347.2804,990.26,343.53" style="stroke:#181818;stroke-width:1.0;"/><text fill="#000000" font-family="Noto Sans CJK JP" font-size="13" lengthAdjust="spacing" textLength="133" x="826" y="335.58">Push Container Image</text></g><!--link CloudBuild to CloudRun--><g id="link_CloudBuild_CloudRun"><path d="M757.05,322.92 C778.31,318.69 802.66,314.33 825,311.5 C1007.78,288.37 1054.81,286.38 1239,290.5 C1248.66,290.72 1252.7138,290.8054 1262.7738,291.1654 " fill="none" id="CloudBuild-to-CloudRun" style="stroke:#181818;stroke-width:1.0;"/><polygon fill="#181818" points="1268.77,291.38,1259.9188,287.0607,1263.7732,291.2012,1259.6327,295.0556,1268.77,291.38" style="stroke:#181818;stroke-width:1.0;"/><text fill="#000000" font-family="Noto Sans CJK JP" font-size="13" lengthAdjust="spacing" textLength="83" x="1021" y="285.58">Deploy Image</text></g><!--link ArtifactRegistry to CloudRun--><g id="link_ArtifactRegistry_CloudRun"><path d="M1134.51,334.26 C1174.3,327.96 1218.7537,320.9176 1262.9337,313.9276 " fill="none" id="ArtifactRegistry-to-CloudRun" style="stroke:#181818;stroke-width:1.0;"/><polygon fill="#181818" points="1268.86,312.99,1259.3455,310.4456,1263.9214,313.7714,1260.5957,318.3473,1268.86,312.99" style="stroke:#181818;stroke-width:1.0;"/><text fill="#000000" font-family="Noto Sans CJK JP" font-size="13" lengthAdjust="spacing" textLength="64" x="1170" y="314.58">Pull Image</text></g><!--link GitHubRepo to Frontend--><g id="link_GitHubRepo_Frontend"><path d="M354.93,320.39 C406.25,290.73 496.64,241.98 580,214.5 C722.24,167.61 890.8958,144.2243 985.8758,133.8043 " fill="none" id="GitHubRepo-to-Frontend" style="stroke:#181818;stroke-width:1.0;"/><polygon fill="#181818" points="991.84,133.15,982.4575,130.1553,986.8698,133.6953,983.3299,138.1076,991.84,133.15" style="stroke:#181818;stroke-width:1.0;"/><text fill="#000000" font-family="Noto Sans CJK JP" font-size="13" lengthAdjust="spacing" textLength="134" x="631.5" y="155.58">Deploy React (Render)</text></g><!--link CloudRun to SecretManager--><g id="link_CloudRun_SecretManager"><path d="M1479.04,283.41 C1528.8,277.16 1581.0668,270.578 1625.3968,265.008 " fill="none" id="CloudRun-to-SecretManager" style="stroke:#181818;stroke-width:1.0;"/><polygon fill="#181818" points="1631.35,264.26,1621.9215,261.4132,1626.389,264.8833,1622.9189,269.3508,1631.35,264.26" style="stroke:#181818;stroke-width:1.0;"/><text fill="#000000" font-family="Noto Sans CJK JP" font-size="13" lengthAdjust="spacing" textLength="82" x="1510" y="266.58">Fetch Secrets</text></g><!--link GitHubActions to OWIDAPI--><g id="link_GitHubActions_OWIDAPI"><path d="M380.37,455.62 C403.8,463.85 430.38,472.64 455,479.5 C503.63,493.05 552.7069,503.9216 597.9869,512.9916 " fill="none" id="GitHubActions-to-OWIDAPI" style="stroke:#181818;stroke-width:1.0;"/><polygon fill="#181818" points="603.87,514.17,595.8309,508.4802,598.9674,513.188,594.2597,516.3244,603.87,514.17" style="stroke:#181818;stroke-width:1.0;"/><text fill="#000000" font-family="Noto Sans CJK JP" font-size="13" lengthAdjust="spacing" textLength="115" x="456" y="475.58">Fetch Climate Data</text></g><!--link GitHubActions to NeonPostgreSQL--><g id="link_GitHubActions_NeonPostgreSQL"><path d="M423.21,431.82 C500.09,432.62 605.04,433.5 697.5,433.5 C697.5,433.5 697.5,433.5 1375,433.5 C1461.14,433.5 1553.1727,446.7095 1619.0227,458.4195 " fill="none" id="GitHubActions-to-NeonPostgreSQL" style="stroke:#181818;stroke-width:1.0;"/><polygon fill="#181818" points="1624.93,459.47,1616.7693,453.956,1620.0072,458.5946,1615.3687,461.8325,1624.93,459.47" style="stroke:#181818;stroke-width:1.0;"/><text fill="#000000" font-family="Noto Sans CJK JP" font-size="13" lengthAdjust="spacing" textLength="60" x="1032.5" y="429.58">Save Data</text></g><!--link User to Frontend--><g id="link_User_Frontend"><path d="M713.69,48.68 C759.25,58.87 898.0748,89.9297 985.8348,109.5697 " fill="none" id="User-to-Frontend" style="stroke:#181818;stroke-width:1.0;"/><polygon fill="#181818" points="991.69,110.88,983.7808,105.011,986.8107,109.788,982.0337,112.8179,991.69,110.88" style="stroke:#181818;stroke-width:1.0;"/><text fill="#000000" font-family="Noto Sans CJK JP" font-size="13" lengthAdjust="spacing" textLength="85" x="850" y="70.58">HTTP Request</text></g><!--link Frontend to CloudRun--><g id="link_Frontend_CloudRun"><path d="M1109.17,151.58 C1167.77,183.77 1263.5711,236.3915 1322.1411,268.5615 " fill="none" id="Frontend-to-CloudRun" style="stroke:#181818;stroke-width:1.0;"/><polygon fill="#181818" points="1327.4,271.45,1321.4373,263.6113,1323.0175,269.0429,1317.5859,270.6232,1327.4,271.45" style="stroke:#181818;stroke-width:1.0;"/><text fill="#000000" font-family="Noto Sans CJK JP" font-size="13" lengthAdjust="spacing" textLength="72" x="1166" y="182.58">API Request</text></g><!--link CloudRun to NeonPostgreSQL--><g id="link_CloudRun_NeonPostgreSQL"><path d="M1421.86,321.67 C1466.06,345.46 1534.13,382.22 1593,414.5 C1613.78,425.9 1631.4982,435.7104 1650.8882,446.5104 " fill="none" id="CloudRun-to-NeonPostgreSQL" style="stroke:#181818;stroke-width:1.0;"/><polygon fill="#181818" points="1656.13,449.43,1650.2138,441.5561,1651.7619,446.997,1646.321,448.5451,1656.13,449.43" style="stroke:#181818;stroke-width:1.0;"/><text fill="#000000" font-family="Noto Sans CJK JP" font-size="13" lengthAdjust="spacing" textLength="62" x="1520" y="365.58">DB Access</text></g><!--link CloudRun to Logging--><g id="link_CloudRun_Logging"><path d="M1479.04,310.54 C1529.92,317.41 1583.6939,324.6673 1628.3639,330.6973 " fill="none" id="CloudRun-to-Logging" style="stroke:#181818;stroke-width:1.0;stroke-dasharray:7.0,7.0;"/><polygon fill="#181818" points="1634.31,331.5,1625.926,326.332,1629.3549,330.8311,1624.8558,334.2601,1634.31,331.5" style="stroke:#181818;stroke-width:1.0;"/><text fill="#000000" font-family="Noto Sans CJK JP" font-size="13" lengthAdjust="spacing" textLength="62" x="1520" y="312.58">Send Logs</text></g><!--SRC=[RLJBRXCn5DtxAwwo8Lcqx5bKIZA4ffGGaY3MPk9CHftOmVPKL8X5CnAqAekkG22ageWLWh14GlaRgmHM_GMkFPF7JBARUtpkkGyVZpeA-PXAEe8-6z0uqWt1TOkE69HQGWleKgwWVl0G3jeb4h611WHb60mrz4F9V1qAJWZrjP3mL36PVNhic4LYZ34PK_-81gZNORpFP0bU4G1VZCQ2CwujZ2dGa5WN2IMWQXcGrslf3uG88WRrICJz3H67GYqEerJ1nIxCywfIXmDRhyE2K6bvujWBT05kq-x47CfUfm4rR0XxgwpguD6sZ4CH124F72_xpjEwp9TCmoFASK3fU2cK8RdnMqpmZR4j26sXT21PzycXax3O2ifft7-fcUGqWcgxgJR47ZzhUZXGEAAQWKSrjJGdQK_mEtyTeTwFds-8f32kTonKY4v85voY5jpAhZeRAIZVJ3_z-NnbaakJ92OvhQmbPnpRmntuz_vY_l6tERqmatEJl3N91vFyC9ElPEaxsDdPMoiBzw0Tgo7KHP-HDTYoLbv1LW-zZQk7UlDktIDhHvPPzCbAbMiQSanhZd0vnRI5IP3kiN4aJZBQXbo1t8wZAACMUrwya9La-epAwIEhs2MPoI-JpCpafqc-ktsUpQVNyyitP5d2AkKSXt8DflrXXYehKxYJszbP_jPkP-SaTqLEDhFCKd3TLrleUTDYLfSUPsGtoHTtnTzkfbT_hzyH-wCfhc6_rslZ4bx4J6con0iRjHqjEBajRDJtQZYVpvHQyNPtznRls3PevJ5Kv3y0]--></g></svg>